<svg width="73" height="73" viewBox="0 0 73 73" fill="none" xmlns="http://www.w3.org/2000/svg">
<circle cx="36.5" cy="36.5" r="35.5" stroke="#FDFAFA" stroke-width="2"/>
<mask id="path-2-inside-1_770_2395" fill="white">
<path fill-rule="evenodd" clip-rule="evenodd" d="M18.3322 8.396L17.408 9.01409L9.19469 28.8903L10.1189 29.2722H9.1189C9.1189 32.3397 11.155 34.9517 14.1783 35.5597V59.2673V60.2673H15.1783H58.5446H59.5446V59.2673V35.3109C61.1489 35.2048 62.5394 34.6897 63.5697 33.7318C64.7443 32.6397 65.3268 31.087 65.3268 29.2722H64.3268L65.251 28.8903L57.0377 9.01409L56.1135 8.396H45.8961H36.7301H28.1882H18.3322ZM63.324 29.4639L55.4447 10.396H47.3081L53.698 28.5569C53.7397 28.6669 53.7625 28.7862 53.7625 28.9108C53.7625 31.4157 55.9184 33.3316 58.906 33.3316C60.4252 33.3316 61.5105 32.9155 62.2079 32.2671C62.8631 31.6579 63.2857 30.742 63.324 29.4639ZM51.759 29.0718L45.1879 10.396H37.7367L37.8614 29.2656L37.7918 29.2661C37.7926 29.2681 37.7934 29.2702 37.7942 29.2722H37.8615C37.8615 29.3567 37.8595 29.4406 37.8555 29.524C37.8595 29.56 37.8615 29.5966 37.8615 29.6336C37.8615 30.7925 38.5758 31.9665 39.9355 32.897C41.2855 33.8207 43.1633 34.4158 45.1734 34.4158C49.0206 34.4158 51.6506 31.5875 51.759 29.0718ZM36.7715 32.5328C37.2895 33.3133 37.9964 33.9935 38.8061 34.5475C40.5143 35.7165 42.7924 36.4158 45.1734 36.4158C48.53 36.4158 51.3528 34.6584 52.7741 32.3063C53.8148 33.8584 55.5604 34.8943 57.5446 35.221V58.2673H47.1724L44.3552 39.6032L44.2268 38.7524H43.3664H29.2724H28.3958L28.281 39.6215L25.8183 58.2673H16.1783V35.6678C17.7269 35.5443 19.0977 34.9696 20.1247 34.0126C20.5396 33.626 20.891 33.1837 21.1717 32.6957C21.5963 33.2484 22.1154 33.7438 22.701 34.1696C24.3283 35.3531 26.5271 36.0544 28.911 36.0544C31.2948 36.0544 33.4937 35.3531 35.121 34.1696C35.7635 33.7023 36.326 33.1514 36.7715 32.5328ZM35.8615 29.2722L35.8615 29.2754C35.8603 30.4723 35.1947 31.643 33.9447 32.5521C32.6945 33.4613 30.918 34.0544 28.911 34.0544C26.9039 34.0544 25.1275 33.4613 23.8773 32.5521C22.6835 31.6839 22.0228 30.5771 21.9647 29.4369L28.8886 10.396H35.7366L35.8615 29.2722ZM20.0207 28.9305L20.9605 29.2722H19.9605C19.9605 29.3937 19.9646 29.5142 19.9727 29.6336H19.9605C19.9605 30.8615 19.505 31.8563 18.7612 32.5494C18.0121 33.2474 16.9111 33.693 15.5397 33.693C13.0027 33.693 11.2136 31.8256 11.1225 29.4619L19.001 10.396H26.7605L20.0207 28.9305ZM30.149 40.7524L27.8357 58.2673H45.1498L42.506 40.7524H30.149Z"/>
</mask>
<path fill-rule="evenodd" clip-rule="evenodd" d="M18.3322 8.396L17.408 9.01409L9.19469 28.8903L10.1189 29.2722H9.1189C9.1189 32.3397 11.155 34.9517 14.1783 35.5597V59.2673V60.2673H15.1783H58.5446H59.5446V59.2673V35.3109C61.1489 35.2048 62.5394 34.6897 63.5697 33.7318C64.7443 32.6397 65.3268 31.087 65.3268 29.2722H64.3268L65.251 28.8903L57.0377 9.01409L56.1135 8.396H45.8961H36.7301H28.1882H18.3322ZM63.324 29.4639L55.4447 10.396H47.3081L53.698 28.5569C53.7397 28.6669 53.7625 28.7862 53.7625 28.9108C53.7625 31.4157 55.9184 33.3316 58.906 33.3316C60.4252 33.3316 61.5105 32.9155 62.2079 32.2671C62.8631 31.6579 63.2857 30.742 63.324 29.4639ZM51.759 29.0718L45.1879 10.396H37.7367L37.8614 29.2656L37.7918 29.2661C37.7926 29.2681 37.7934 29.2702 37.7942 29.2722H37.8615C37.8615 29.3567 37.8595 29.4406 37.8555 29.524C37.8595 29.56 37.8615 29.5966 37.8615 29.6336C37.8615 30.7925 38.5758 31.9665 39.9355 32.897C41.2855 33.8207 43.1633 34.4158 45.1734 34.4158C49.0206 34.4158 51.6506 31.5875 51.759 29.0718ZM36.7715 32.5328C37.2895 33.3133 37.9964 33.9935 38.8061 34.5475C40.5143 35.7165 42.7924 36.4158 45.1734 36.4158C48.53 36.4158 51.3528 34.6584 52.7741 32.3063C53.8148 33.8584 55.5604 34.8943 57.5446 35.221V58.2673H47.1724L44.3552 39.6032L44.2268 38.7524H43.3664H29.2724H28.3958L28.281 39.6215L25.8183 58.2673H16.1783V35.6678C17.7269 35.5443 19.0977 34.9696 20.1247 34.0126C20.5396 33.626 20.891 33.1837 21.1717 32.6957C21.5963 33.2484 22.1154 33.7438 22.701 34.1696C24.3283 35.3531 26.5271 36.0544 28.911 36.0544C31.2948 36.0544 33.4937 35.3531 35.121 34.1696C35.7635 33.7023 36.326 33.1514 36.7715 32.5328ZM35.8615 29.2722L35.8615 29.2754C35.8603 30.4723 35.1947 31.643 33.9447 32.5521C32.6945 33.4613 30.918 34.0544 28.911 34.0544C26.9039 34.0544 25.1275 33.4613 23.8773 32.5521C22.6835 31.6839 22.0228 30.5771 21.9647 29.4369L28.8886 10.396H35.7366L35.8615 29.2722ZM20.0207 28.9305L20.9605 29.2722H19.9605C19.9605 29.3937 19.9646 29.5142 19.9727 29.6336H19.9605C19.9605 30.8615 19.505 31.8563 18.7612 32.5494C18.0121 33.2474 16.9111 33.693 15.5397 33.693C13.0027 33.693 11.2136 31.8256 11.1225 29.4619L19.001 10.396H26.7605L20.0207 28.9305ZM30.149 40.7524L27.8357 58.2673H45.1498L42.506 40.7524H30.149Z" fill="#FDFAFA"/>
<path d="M17.408 9.01409L14.6284 4.85792L13.3667 5.70175L12.787 7.10458L17.408 9.01409ZM18.3322 8.396V3.396H16.8143L15.5526 4.23982L18.3322 8.396ZM9.19469 28.8903L4.57368 26.9808L2.66417 31.6018L7.28518 33.5113L9.19469 28.8903ZM10.1189 29.2722V34.2722L12.0284 24.6512L10.1189 29.2722ZM9.1189 29.2722V24.2722H4.1189V29.2722H9.1189ZM14.1783 35.5597H19.1783V31.465L15.164 30.6578L14.1783 35.5597ZM14.1783 60.2673H9.1783V65.2673H14.1783V60.2673ZM59.5446 60.2673V65.2673H64.5446V60.2673H59.5446ZM59.5446 35.3109L59.2146 30.3218L54.5446 30.6308V35.3109H59.5446ZM63.5697 33.7318L60.1651 30.07L60.1651 30.07L63.5697 33.7318ZM65.3268 29.2722H70.3268V24.2722H65.3268V29.2722ZM64.3268 29.2722L62.4173 24.6512L64.3268 34.2722V29.2722ZM65.251 28.8903L67.1605 33.5113L71.7815 31.6018L69.872 26.9808L65.251 28.8903ZM57.0377 9.01409L61.6587 7.10458L61.079 5.70175L59.8173 4.85792L57.0377 9.01409ZM56.1135 8.396L58.8931 4.23982L57.6314 3.396H56.1135V8.396ZM55.4447 10.396L60.0657 8.48649L58.7887 5.396H55.4447V10.396ZM63.324 29.4639L68.3217 29.6134L68.3538 28.5436L67.945 27.5543L63.324 29.4639ZM47.3081 10.396V5.396H40.2483L42.5915 12.0555L47.3081 10.396ZM53.698 28.5569L48.9815 30.2164L49.001 30.2719L49.0218 30.3269L53.698 28.5569ZM62.2079 32.2671L58.8033 28.6053L58.8033 28.6053L62.2079 32.2671ZM45.1879 10.396L49.9044 8.73646L48.7291 5.396H45.1879V10.396ZM51.759 29.0718L56.7543 29.287L56.7959 28.3227L56.4755 27.4122L51.759 29.0718ZM37.7367 10.396V5.396H32.7035L32.7368 10.4291L37.7367 10.396ZM37.8614 29.2656L37.8946 34.2655L42.8944 34.2324L42.8613 29.2326L37.8614 29.2656ZM37.7918 29.2661L37.7586 24.2662L30.4589 24.3146L33.1417 31.1036L37.7918 29.2661ZM37.7942 29.2722L33.1315 31.0776L34.3684 34.2722H37.7942V29.2722ZM37.8615 29.2722H42.8615V24.2722H37.8615V29.2722ZM37.8555 29.524L32.8611 29.2879L32.8427 29.6779L32.885 30.0659L37.8555 29.524ZM39.9355 32.897L37.1119 37.0233L37.1119 37.0233L39.9355 32.897ZM36.7715 32.5328L40.9372 29.7676L36.939 23.7444L32.7141 29.6109L36.7715 32.5328ZM38.8061 34.5475L35.9824 38.6739L35.9824 38.6739L38.8061 34.5475ZM52.7741 32.3063L56.927 29.5218L52.555 23.0012L48.4947 29.7204L52.7741 32.3063ZM57.5446 35.221H62.5446V30.977L58.357 30.2874L57.5446 35.221ZM57.5446 58.2673V63.2673H62.5446V58.2673H57.5446ZM47.1724 58.2673L42.2284 59.0135L42.8705 63.2673H47.1724V58.2673ZM44.3552 39.6032L39.4112 40.3494L39.4112 40.3494L44.3552 39.6032ZM44.2268 38.7524L49.1708 38.0062L48.5288 33.7524H44.2268V38.7524ZM28.3958 38.7524V33.7524H24.0127L23.4388 38.0977L28.3958 38.7524ZM28.281 39.6215L33.2379 40.2762L33.2379 40.2762L28.281 39.6215ZM25.8183 58.2673V63.2673H30.2014L30.7753 58.922L25.8183 58.2673ZM16.1783 58.2673H11.1783V63.2673H16.1783V58.2673ZM16.1783 35.6678L15.7808 30.6837L11.1783 31.0507V35.6678H16.1783ZM20.1247 34.0126L16.716 30.3546L16.716 30.3546L20.1247 34.0126ZM21.1717 32.6957L25.1366 29.6495L20.5732 23.7099L16.8378 30.2022L21.1717 32.6957ZM22.701 34.1696L19.7601 38.2133L19.7601 38.2133L22.701 34.1696ZM35.121 34.1696L32.1801 30.1259L32.1801 30.1259L35.121 34.1696ZM35.8615 29.2754L40.8615 29.2804L40.8615 29.2784L35.8615 29.2754ZM35.8615 29.2722L40.8615 29.2752L40.8615 29.2572L40.8614 29.2392L35.8615 29.2722ZM33.9447 32.5521L31.0038 28.5084L31.0038 28.5084L33.9447 32.5521ZM23.8773 32.5521L20.9364 36.5958L20.9364 36.5958L23.8773 32.5521ZM21.9647 29.4369L17.2657 27.7282L16.9196 28.6799L16.9712 29.6913L21.9647 29.4369ZM28.8886 10.396V5.396H25.3865L24.1897 8.68728L28.8886 10.396ZM35.7366 10.396L40.7365 10.3629L40.7037 5.396H35.7366V10.396ZM20.9605 29.2722V34.2722L22.6692 24.5733L20.9605 29.2722ZM20.0207 28.9305L15.3217 27.2218L13.613 31.9207L18.312 33.6295L20.0207 28.9305ZM19.9605 29.2722V24.2722H14.9605V29.2722H19.9605ZM19.9727 29.6336V34.6336H25.3246L24.9612 29.2941L19.9727 29.6336ZM19.9605 29.6336V24.6336H14.9605V29.6336H19.9605ZM18.7612 32.5494L15.3526 28.8914L15.3526 28.8914L18.7612 32.5494ZM11.1225 29.4619L6.50152 27.5524L6.08419 28.5623L6.12624 29.6543L11.1225 29.4619ZM19.001 10.396V5.396H15.6571L14.38 8.48649L19.001 10.396ZM26.7605 10.396L31.4595 12.1047L33.899 5.396L26.7605 5.396V10.396ZM27.8357 58.2673L22.8787 57.6126L22.1319 63.2673H27.8357V58.2673ZM30.149 40.7524V35.7524H25.7659L25.192 40.0977L30.149 40.7524ZM45.1498 58.2673V63.2673H50.9611L50.0938 57.521L45.1498 58.2673ZM42.506 40.7524L47.45 40.0062L46.808 35.7524H42.506V40.7524ZM20.1876 13.1703L21.1118 12.5522L15.5526 4.23982L14.6284 4.85792L20.1876 13.1703ZM13.8157 30.7998L22.029 10.9236L12.787 7.10458L4.57368 26.9808L13.8157 30.7998ZM12.0284 24.6512L11.1042 24.2693L7.28518 33.5113L8.20939 33.8932L12.0284 24.6512ZM9.1189 34.2722H10.1189V24.2722H9.1189V34.2722ZM15.164 30.6578C14.825 30.5896 14.589 30.4277 14.4244 30.2212C14.2536 30.0071 14.1189 29.6899 14.1189 29.2722H4.1189C4.1189 34.6075 7.72499 39.3621 13.1926 40.4616L15.164 30.6578ZM19.1783 59.2673V35.5597H9.1783V59.2673H19.1783ZM19.1783 60.2673V59.2673H9.1783V60.2673H19.1783ZM15.1783 55.2673H14.1783V65.2673H15.1783V55.2673ZM58.5446 55.2673H15.1783V65.2673H58.5446V55.2673ZM59.5446 55.2673H58.5446V65.2673H59.5446V55.2673ZM54.5446 59.2673V60.2673H64.5446V59.2673H54.5446ZM54.5446 35.3109V59.2673H64.5446V35.3109H54.5446ZM60.1651 30.07C60.1529 30.0814 60.1034 30.1254 59.9691 30.1773C59.8272 30.2322 59.5844 30.2973 59.2146 30.3218L59.8747 40.3C62.3389 40.137 64.9132 39.3099 66.9743 37.3936L60.1651 30.07ZM60.3268 29.2722C60.3268 29.6482 60.2665 29.8637 60.2291 29.9598C60.1967 30.043 60.1734 30.0624 60.1651 30.07L66.9743 37.3936C69.3685 35.1676 70.3268 32.1737 70.3268 29.2722H60.3268ZM64.3268 34.2722H65.3268V24.2722H64.3268V34.2722ZM63.3415 24.2693L62.4173 24.6512L66.2363 33.8932L67.1605 33.5113L63.3415 24.2693ZM52.4167 10.9236L60.63 30.7998L69.872 26.9808L61.6587 7.10458L52.4167 10.9236ZM53.3339 12.5522L54.2581 13.1703L59.8173 4.85792L58.8931 4.23982L53.3339 12.5522ZM45.8961 13.396H56.1135V3.396H45.8961V13.396ZM36.7301 13.396H45.8961V3.396H36.7301V13.396ZM28.1882 13.396H36.7301V3.396H28.1882V13.396ZM18.3322 13.396H28.1882V3.396H18.3322V13.396ZM50.8237 12.3055L58.703 31.3734L67.945 27.5543L60.0657 8.48649L50.8237 12.3055ZM47.3081 15.396H55.4447V5.396H47.3081V15.396ZM58.4146 26.8974L52.0246 8.73647L42.5915 12.0555L48.9815 30.2164L58.4146 26.8974ZM58.7625 28.9108C58.7625 28.1723 58.6267 27.4538 58.3743 26.7869L49.0218 30.3269C48.8527 29.8801 48.7625 29.4002 48.7625 28.9108H58.7625ZM58.906 28.3316C58.475 28.3316 58.3931 28.1992 58.4916 28.2848C58.5395 28.3263 58.6139 28.4091 58.675 28.5397C58.7379 28.6743 58.7625 28.8084 58.7625 28.9108H48.7625C48.7625 34.8177 53.8443 38.3316 58.906 38.3316V28.3316ZM58.8033 28.6053C59.0217 28.4023 59.2086 28.3245 59.2662 28.3051C59.3144 28.2888 59.2151 28.3316 58.906 28.3316V38.3316C61.3156 38.3316 63.749 37.6615 65.6125 35.9289L58.8033 28.6053ZM58.3262 29.3143C58.3225 29.4389 58.3055 29.3778 58.3771 29.2048C58.4535 29.0201 58.5934 28.8005 58.8033 28.6053L65.6125 35.9289C67.4176 34.2506 68.251 31.976 68.3217 29.6134L58.3262 29.3143ZM40.4713 12.0555L47.0424 30.7313L56.4755 27.4122L49.9044 8.73646L40.4713 12.0555ZM37.7367 15.396H45.1879V5.396H37.7367V15.396ZM42.8613 29.2326L42.7366 10.3629L32.7368 10.4291L32.8616 29.2987L42.8613 29.2326ZM37.8249 34.266L37.8946 34.2655L37.8283 24.2657L37.7586 24.2662L37.8249 34.266ZM42.4569 27.4669C42.4503 27.4499 42.4449 27.4361 42.4419 27.4286L33.1417 31.1036C33.1403 31.1002 33.1365 31.0905 33.1315 31.0776L42.4569 27.4669ZM37.8615 24.2722H37.7942V34.2722H37.8615V24.2722ZM42.85 29.7601C42.8576 29.598 42.8615 29.4354 42.8615 29.2722H32.8615C32.8615 29.2779 32.8613 29.2831 32.8611 29.2879L42.85 29.7601ZM42.8615 29.6336C42.8615 29.4152 42.8496 29.1977 42.8261 28.9821L32.885 30.0659C32.8693 29.9223 32.8615 29.7779 32.8615 29.6336H42.8615ZM42.7592 28.7706C42.5398 28.6204 42.544 28.5663 42.6221 28.6906C42.7093 28.8293 42.8615 29.1565 42.8615 29.6336H32.8615C32.8615 32.9718 34.8943 35.5058 37.1119 37.0233L42.7592 28.7706ZM45.1734 29.4158C44.0909 29.4158 43.2137 29.0816 42.7592 28.7706L37.1119 37.0233C39.3573 38.5599 42.2358 39.4158 45.1734 39.4158V29.4158ZM46.7636 28.8565C46.7719 28.6644 46.8191 28.6038 46.7894 28.6609C46.7623 28.713 46.6906 28.8222 46.5508 28.9463C46.2844 29.1825 45.836 29.4158 45.1734 29.4158V39.4158C51.3368 39.4158 56.5157 34.825 56.7543 29.287L46.7636 28.8565ZM32.6057 35.2981C33.5358 36.6993 34.7332 37.819 35.9824 38.6739L41.6298 30.4212C41.2597 30.1679 41.0433 29.9274 40.9372 29.7676L32.6057 35.2981ZM35.9824 38.6739C38.5865 40.4559 41.8654 41.4158 45.1734 41.4158V31.4158C43.7195 31.4158 42.4421 30.977 41.6298 30.4211L35.9824 38.6739ZM45.1734 41.4158C50.2734 41.4158 54.7229 38.749 57.0535 34.8922L48.4947 29.7204C47.9827 30.5677 46.7867 31.4158 45.1734 31.4158V41.4158ZM48.6212 35.0908C50.5354 37.9457 53.5826 39.6359 56.7323 40.1546L58.357 30.2874C57.5383 30.1526 57.0942 29.7711 56.927 29.5218L48.6212 35.0908ZM52.5446 35.221V58.2673H62.5446V35.221H52.5446ZM57.5446 53.2673H47.1724V63.2673H57.5446V53.2673ZM52.1164 57.521L49.2992 38.8569L39.4112 40.3494L42.2284 59.0135L52.1164 57.521ZM49.2992 38.8569L49.1708 38.0062L39.2828 39.4987L39.4112 40.3494L49.2992 38.8569ZM44.2268 33.7524H43.3664V43.7524H44.2268V33.7524ZM43.3664 33.7524H29.2724V43.7524H43.3664V33.7524ZM29.2724 33.7524H28.3958V43.7524H29.2724V33.7524ZM23.4388 38.0977L23.324 38.9668L33.2379 40.2762L33.3527 39.4071L23.4388 38.0977ZM23.324 38.9668L20.8614 57.6126L30.7753 58.922L33.2379 40.2762L23.324 38.9668ZM25.8183 53.2673H16.1783V63.2673H25.8183V53.2673ZM21.1783 58.2673V35.6678H11.1783V58.2673H21.1783ZM16.5758 40.652C19.1209 40.449 21.5916 39.4799 23.5333 37.6707L16.716 30.3546C16.6037 30.4593 16.3328 30.6396 15.7808 30.6837L16.5758 40.652ZM23.5333 37.6707C24.3119 36.9452 24.9754 36.1106 25.5056 35.1892L16.8378 30.2022C16.8065 30.2567 16.7674 30.3067 16.716 30.3546L23.5333 37.6707ZM17.2068 35.742C17.9495 36.7087 18.8237 37.5323 19.7601 38.2133L25.6418 30.1259C25.4072 29.9553 25.2432 29.7882 25.1366 29.6495L17.2068 35.742ZM19.7601 38.2133C22.3307 40.0828 25.5855 41.0544 28.911 41.0544V31.0544C27.4687 31.0544 26.3259 30.6234 25.6418 30.1259L19.7601 38.2133ZM28.911 41.0544C32.2364 41.0544 35.4913 40.0828 38.0619 38.2133L32.1801 30.1259C31.496 30.6234 30.3533 31.0544 28.911 31.0544V41.0544ZM38.0618 38.2133C39.0884 37.4667 40.042 36.5474 40.8288 35.4548L32.7141 29.6109C32.61 29.7555 32.4385 29.938 32.1801 30.1259L38.0618 38.2133ZM40.8615 29.2784L40.8615 29.2752L30.8615 29.2693L30.8615 29.2725L40.8615 29.2784ZM36.8855 36.5958C39.0802 34.9997 40.8583 32.4613 40.8615 29.2804L30.8615 29.2705C30.8618 28.9189 30.9647 28.6535 31.0475 28.511C31.1228 28.3812 31.1505 28.4018 31.0038 28.5084L36.8855 36.5958ZM28.911 39.0544C31.8605 39.0544 34.6928 38.1905 36.8855 36.5958L31.0038 28.5084C30.6962 28.7321 29.9756 29.0544 28.911 29.0544V39.0544ZM20.9364 36.5958C23.1292 38.1905 25.9614 39.0544 28.911 39.0544V29.0544C27.8464 29.0544 27.1258 28.7321 26.8182 28.5084L20.9364 36.5958ZM16.9712 29.6913C17.1242 32.6954 18.8417 35.0724 20.9364 36.5958L26.8182 28.5084C26.6786 28.4069 26.6969 28.3832 26.7646 28.4942C26.8383 28.6152 26.9414 28.8528 26.9582 29.1824L16.9712 29.6913ZM24.1897 8.68728L17.2657 27.7282L26.6636 31.1456L33.5876 12.1047L24.1897 8.68728ZM35.7366 5.396H28.8886V15.396H35.7366V5.396ZM40.8614 29.2392L40.7365 10.3629L30.7368 10.4291L30.8616 29.3053L40.8614 29.2392ZM22.6692 24.5733L21.7294 24.2315L18.312 33.6295L19.2518 33.9712L22.6692 24.5733ZM19.9605 34.2722H20.9605V24.2722H19.9605V34.2722ZM24.9612 29.2941C24.9608 29.2876 24.9605 29.2803 24.9605 29.2722H14.9605C14.9605 29.5071 14.9685 29.7409 14.9843 29.9731L24.9612 29.2941ZM19.9605 34.6336H19.9727V24.6336H19.9605V34.6336ZM22.1698 36.2075C23.9815 34.5193 24.9605 32.1749 24.9605 29.6336H14.9605C14.9605 29.6219 14.9645 29.5103 15.035 29.3436C15.1059 29.1762 15.2169 29.0178 15.3526 28.8914L22.1698 36.2075ZM15.5397 38.693C18.0085 38.693 20.3795 37.8757 22.1698 36.2075L15.3526 28.8914C15.4875 28.7657 15.6043 28.71 15.6584 28.6901C15.712 28.6704 15.6824 28.693 15.5397 28.693V38.693ZM6.12624 29.6543C6.31688 34.6052 10.2197 38.693 15.5397 38.693V28.693C15.5248 28.693 15.5737 28.6916 15.6614 28.7269C15.7477 28.7617 15.8385 28.8191 15.9183 28.8975C16.087 29.0633 16.1172 29.228 16.1188 29.2695L6.12624 29.6543ZM14.38 8.48649L6.50152 27.5524L15.7436 31.3714L23.622 12.3055L14.38 8.48649ZM26.7605 5.396H19.001V15.396H26.7605V5.396ZM24.7197 30.6392L31.4595 12.1047L22.0615 8.68728L15.3217 27.2218L24.7197 30.6392ZM32.7926 58.922L35.1059 41.4071L25.192 40.0977L22.8787 57.6126L32.7926 58.922ZM45.1498 53.2673H27.8357V63.2673H45.1498V53.2673ZM37.562 41.4987L40.2058 59.0135L50.0938 57.521L47.45 40.0062L37.562 41.4987ZM30.149 45.7524H42.506V35.7524H30.149V45.7524Z" fill="#FDFAFA" mask="url(#path-2-inside-1_770_2395)"/>
</svg>
