<?xml version="1.0" encoding="UTF-8"?><svg xmlns="http://www.w3.org/2000/svg" width="101.6mm" height="103.85mm" viewBox="0 0 288 294.37"><defs><style>.uuid-bed7d64b-6625-401f-a562-61d6904e8f35{fill:#fff;}.uuid-bed7d64b-6625-401f-a562-61d6904e8f35,.uuid-0d8e1e31-c371-4bc6-9b92-3fe51779601c,.uuid-e723bf06-aecf-4a57-beff-9bb92fbcd681{stroke:#fff;}.uuid-0d8e1e31-c371-4bc6-9b92-3fe51779601c{stroke-linecap:round;stroke-linejoin:round;stroke-width:5.34px;}.uuid-0d8e1e31-c371-4bc6-9b92-3fe51779601c,.uuid-e723bf06-aecf-4a57-beff-9bb92fbcd681{fill:none;}.uuid-e723bf06-aecf-4a57-beff-9bb92fbcd681{stroke-miterlimit:10;stroke-width:5.69px;}</style></defs><g id="uuid-69390f71-10a1-4532-a977-6c250ee8e89b"><path class="uuid-bed7d64b-6625-401f-a562-61d6904e8f35" d="m23.38,155.89l-.17-5.88,21.98-.63v-.2c-1.8-1.17-3.46-2.34-4.98-3.45l-17.51-13.44-.21-7.31,19.82,15.95,25.74-18.54.2,6.97-21.96,15.66,5.13,4.19,17.38-.5.17,5.88-45.59,1.3Z"/><path class="uuid-bed7d64b-6625-401f-a562-61d6904e8f35" d="m68.73,125l-3.96-6.12c-5.18,2-11.6,1.82-17.88-.7-13.37-5.38-18.69-17.37-14.24-28.42,1.57-3.89,4.16-7.08,7.57-9.21l-3.6-5.75,3.6-2.42,3.83,6.06c5.24-1.97,11.55-1.7,17.77.8,14.75,5.94,18.56,18.05,14.5,28.16-1.62,4.02-4.3,7.24-7.71,9.37l3.81,6.13-3.69,2.09Zm-25.58-40.13c-2.68,1.4-4.87,3.58-6.13,6.72-3.71,9.23,2.96,17.31,11.81,20.87,4.71,1.9,8.6,2,12.63,1.43l-.04-.09-18.26-28.94Zm22.53,27.6c2.78-1.29,4.83-3.31,6.2-6.7,3.56-8.85-2.57-17.01-12.11-20.85-3.58-1.44-7.71-2.23-12.17-1.47l-.08.19,18.16,28.83Z"/><path class="uuid-bed7d64b-6625-401f-a562-61d6904e8f35" d="m59.74,51.68c1.69-2.01,4.64-4.84,7.89-7.38,4.64-3.63,8.25-5.17,11.9-5.11,2.95-.08,5.74,1.18,7.95,4,2.71,3.46,2.8,8.29.1,12.64l.08.11c4.08-1.82,10.29-2.12,14.46,3.2,2.42,3.09,3.03,6.4,2.6,9.57-.71,4.25-3.92,8.49-9.79,13.08-3.2,2.5-5.81,4.21-7.53,5.21l-27.67-35.33Zm16.15,11.08l4.21-3.3c4.9-3.84,5.78-8.65,3.06-12.12-3.3-4.21-7.79-3.36-12.48.32-2.13,1.67-3.23,2.79-3.85,3.53l9.06,11.56Zm13.48,17.21c1.03-.55,2.41-1.54,4.06-2.83,4.8-3.76,7.84-8.98,3.75-14.2-3.84-4.9-9.63-3.63-14.7.33l-3.84,3.01,10.73,13.69Z"/><path class="uuid-bed7d64b-6625-401f-a562-61d6904e8f35" d="m130.92,41.56l-17.1,4.7,4.35,15.86,19.06-5.23,1.31,4.76-24.73,6.79-12.08-43.99,23.76-6.52,1.31,4.76-18.08,4.96,3.82,13.9,17.1-4.7,1.29,4.7Z"/><path class="uuid-bed7d64b-6625-401f-a562-61d6904e8f35" d="m142.18,54.61c2.44,1.91,6.13,3.68,10.16,4.13,5.99.67,9.84-2.1,10.35-6.68.47-4.24-1.68-6.93-7.54-9.96-7.11-3.45-11.25-7.79-10.54-14.18.79-7.06,7.22-11.66,16.03-10.68,4.64.52,7.88,1.97,9.77,3.34l-2.15,4.6c-1.39-.97-4.27-2.65-8.37-3.11-6.19-.69-8.96,2.75-9.3,5.84-.47,4.24,2.05,6.63,8.04,9.75,7.34,3.81,10.83,7.95,10.08,14.61-.78,7-6.63,12.47-17.33,11.28-4.37-.49-9-2.3-11.25-4.18l2.03-4.75Z"/><path class="uuid-bed7d64b-6625-401f-a562-61d6904e8f35" d="m210.91,35.38l4.61,3.66-13.68,17.22.16.13c2.05-.62,4.01-1.13,5.84-1.58l21.56-4.74,5.72,4.54-24.97,4.89-2.39,31.63-5.46-4.33,2.17-26.88-6.5,1.23-10.82,13.62-4.61-3.66,28.37-35.72Z"/><path class="uuid-bed7d64b-6625-401f-a562-61d6904e8f35" d="m251.03,77.2l-24.41,11.53c-9.24,4.36-11.22,10.31-8.62,15.82,2.89,6.12,8.78,8.13,17.89,3.82l24.42-11.53,2.54,5.38-24.05,11.36c-12.67,5.98-21.02,1.77-25.24-7.16-3.99-8.44-2.16-17.09,10.63-23.13l24.29-11.47,2.54,5.38Z"/><path class="uuid-bed7d64b-6625-401f-a562-61d6904e8f35" d="m222.68,126.75l45.53,2.71-.38,6.42-23.91,13.22c-5.54,3.06-10.49,5.41-15.28,7.29l.06.14c6.11-.18,11.66.02,18.75.44l19.05,1.13-.33,5.54-45.53-2.71.35-5.94,23.96-13.08c5.26-2.87,10.64-5.6,15.71-7.61l-.05-.21c-5.76,0-11.24-.2-18.81-.65l-19.45-1.16.33-5.54Z"/><path class="uuid-bed7d64b-6625-401f-a562-61d6904e8f35" d="m71.22,185.91l-38.73,24.1-3.11-5,38.73-24.1,3.11,5Z"/><path class="uuid-bed7d64b-6625-401f-a562-61d6904e8f35" d="m85.48,204.38c2.46.93,6.1,2.77,9.58,4.99,4.96,3.17,7.61,6.06,8.77,9.53,1.05,2.76.79,5.8-1.14,8.83-2.37,3.71-6.9,5.39-11.89,4.29l-.07.11c3.07,3.24,5.42,9,1.78,14.7-2.11,3.31-5.03,4.98-8.17,5.62-4.25.74-9.31-.89-15.58-4.89-3.42-2.19-5.9-4.09-7.41-5.37l24.14-37.82Zm-16.85,37.33c.86.79,2.25,1.76,4.02,2.89,5.13,3.28,11.07,4.42,14.64-1.17,3.35-5.25.23-10.29-5.19-13.75l-4.11-2.62-9.36,14.66Zm11.76-18.42l4.51,2.88c5.25,3.35,10.08,2.58,12.44-1.13,2.88-4.51.58-8.46-4.44-11.66-2.28-1.46-3.7-2.12-4.61-2.46l-7.9,12.38Z"/><path class="uuid-bed7d64b-6625-401f-a562-61d6904e8f35" d="m122.11,222.64l-3.44,26.78c-1.3,10.13,2.64,15.01,8.69,15.78,6.71.86,11.58-3.02,12.86-13.02l3.44-26.78,5.91.76-3.38,26.38c-1.78,13.89-9.83,18.66-19.63,17.4-9.26-1.19-15.56-7.39-13.76-21.42l3.42-26.65,5.91.76Z"/><path class="uuid-bed7d64b-6625-401f-a562-61d6904e8f35" d="m168.19,226.59l-13.27,4.03-1.46-4.79,32.31-9.82,1.46,4.79-13.34,4.05,11.81,38.85-5.7,1.73-11.81-38.85Z"/><path class="uuid-bed7d64b-6625-401f-a562-61d6904e8f35" d="m193.72,209.38l24.54,38.45-4.96,3.17-24.54-38.45,4.96-3.17Z"/><path class="uuid-bed7d64b-6625-401f-a562-61d6904e8f35" d="m201.68,204.44l3.85-4.45,16.63,14.39.13-.15c-.53-2.07-.96-4.06-1.34-5.9l-3.82-21.75,4.78-5.53,3.83,25.15,31.5,3.72-4.56,5.27-26.77-3.3.95,6.55,13.15,11.38-3.85,4.45-34.49-29.85Z"/></g><g id="uuid-37776519-e070-4d99-b1a9-d92bbf32287b"><path class="uuid-0d8e1e31-c371-4bc6-9b92-3fe51779601c" d="m103.05,86.14c-6.49,14.83-12.97,29.66-19.46,44.5.97,5.33,4.7,9.66,9.61,11.11,6.06,1.79,12.96-1.09,16.31-7.14.42.82,5.06,9.38,15.19,10.77,10.83,1.48,17.85-6.62,18.28-7.13.43.52,7.85,9.25,19.42,7.71,11.02-1.47,15.96-10.94,16.35-11.73,3.69,5.44,10.09,8.1,15.96,6.73,6.51-1.52,9.44-7.29,9.85-8.12-6.17-15.69-12.34-31.38-18.51-47.08-27.67.13-55.34.25-83.01.38Z"/><path class="uuid-0d8e1e31-c371-4bc6-9b92-3fe51779601c" d="m186.06,85.76c-26.33.12-49.9.23-83.01.38-6.49,14.83-12.97,29.66-19.46,44.5.97,5.33,4.7,9.66,9.61,11.11,1.12.33,2.27.5,3.42.52v55.19h96.1v-56.2c.67-.05,1.33-.15,1.99-.3,6.51-1.52,9.44-7.29,9.85-8.12-6.17-15.69-12.34-31.38-18.51-47.08Z"/><path class="uuid-0d8e1e31-c371-4bc6-9b92-3fe51779601c" d="m122.51,197.47c1.97-14.49,3.95-28.99,5.92-43.48h29.95c2.31,14.49,4.62,28.99,6.94,43.48h-42.81Z"/><line class="uuid-0d8e1e31-c371-4bc6-9b92-3fe51779601c" x1="109.51" y1="134.62" x2="121.17" y2="87.08"/><line class="uuid-0d8e1e31-c371-4bc6-9b92-3fe51779601c" x1="178.75" y1="134.23" x2="168.86" y2="85.84"/><line class="uuid-0d8e1e31-c371-4bc6-9b92-3fe51779601c" x1="142.98" y1="138.25" x2="142.98" y2="85.96"/><circle class="uuid-e723bf06-aecf-4a57-beff-9bb92fbcd681" cx="145.18" cy="144.08" r="137.28"/></g></svg>