<svg width="27" height="27" viewBox="0 0 27 27" fill="none" xmlns="http://www.w3.org/2000/svg">
<path d="M25.6956 13.6196C25.6956 20.4795 20.1345 26.0406 13.2745 26.0406C6.4146 26.0406 0.853516 20.4795 0.853516 13.6196C0.853516 6.75963 6.4146 1.19855 13.2745 1.19855C20.1345 1.19855 25.6956 6.75963 25.6956 13.6196Z" stroke="black"/>
<mask id="path-2-inside-1_765_1491" fill="white">
<path fill-rule="evenodd" clip-rule="evenodd" d="M6.84307 3.52475L6.38097 3.8338L3.47345 10.87L3.93555 11.061H3.43555C3.43555 12.1748 4.15201 13.1325 5.22658 13.4034V21.6792V22.1792H5.72658H21.0783H21.5783V21.6792V13.3325C22.1158 13.2744 22.5923 13.0853 22.9566 12.7466C23.4079 12.3269 23.6252 11.7352 23.6252 11.061H23.1252L23.5873 10.87L20.6798 3.8338L20.2177 3.52475H16.6007H13.3559H10.3321H6.84307ZM22.6231 11.1551L19.8833 4.52475H17.3067L19.4992 10.7561C19.52 10.8111 19.5314 10.8707 19.5314 10.933C19.5314 11.7192 20.2078 12.352 21.2062 12.352C21.7181 12.352 22.0629 12.212 22.2757 12.0142C22.4689 11.8346 22.6049 11.5594 22.6231 11.1551ZM18.5288 11.011L16.2466 4.52475H13.8592L13.9024 11.0576L13.8851 11.0578C13.8854 11.0588 13.8856 11.0599 13.8859 11.061H13.9024C13.9024 11.0896 13.9018 11.1181 13.9007 11.1464C13.9018 11.1604 13.9024 11.1746 13.9024 11.1889C13.9024 11.5352 14.1165 11.9112 14.5731 12.2236C15.0248 12.5327 15.6604 12.7358 16.3449 12.7358C17.6264 12.7358 18.476 11.8062 18.5288 11.011ZM13.3662 12.4574C13.5454 12.6842 13.7659 12.883 14.0084 13.0489C14.6393 13.4806 15.4749 13.7358 16.3449 13.7358C17.4933 13.7358 18.4829 13.1759 19.0427 12.3905C19.4173 12.8481 19.9657 13.1604 20.5783 13.2878V21.1792H17.1781L16.1996 14.6963L16.1354 14.271H15.7052H10.7159H10.2776L10.2202 14.7055L9.36517 21.1792H6.22658V13.4566C6.74967 13.3899 7.2173 13.1812 7.57713 12.8459C7.68417 12.7461 7.77995 12.6367 7.86371 12.519C7.99471 12.6639 8.14297 12.7958 8.30373 12.9127C8.90735 13.3517 9.71656 13.6078 10.588 13.6078C11.4594 13.6078 12.2686 13.3517 12.8722 12.9127C13.0554 12.7794 13.2224 12.6268 13.3662 12.4574ZM12.9024 11.061L12.9024 11.0626C12.9018 11.4279 12.6989 11.8022 12.284 12.104C11.869 12.4058 11.271 12.6078 10.588 12.6078C9.90496 12.6078 9.30693 12.4058 8.8919 12.104C8.50639 11.8236 8.30388 11.4806 8.27665 11.1403L10.6823 4.52475H12.8592L12.9024 11.061ZM7.30358 10.8901L7.77348 11.061H7.27348C7.27348 11.104 7.27483 11.1466 7.27749 11.1889H7.27348C7.27348 11.5852 7.12751 11.898 6.8954 12.1143C6.66067 12.333 6.30799 12.4799 5.85451 12.4799C5.04971 12.4799 4.48174 11.9007 4.43823 11.1537L7.17746 4.52475H9.61825L7.30358 10.8901ZM11.1542 15.271L10.3739 21.1792H16.1668L15.275 15.271H11.1542Z"/>
</mask>
<path fill-rule="evenodd" clip-rule="evenodd" d="M6.84307 3.52475L6.38097 3.8338L3.47345 10.87L3.93555 11.061H3.43555C3.43555 12.1748 4.15201 13.1325 5.22658 13.4034V21.6792V22.1792H5.72658H21.0783H21.5783V21.6792V13.3325C22.1158 13.2744 22.5923 13.0853 22.9566 12.7466C23.4079 12.3269 23.6252 11.7352 23.6252 11.061H23.1252L23.5873 10.87L20.6798 3.8338L20.2177 3.52475H16.6007H13.3559H10.3321H6.84307ZM22.6231 11.1551L19.8833 4.52475H17.3067L19.4992 10.7561C19.52 10.8111 19.5314 10.8707 19.5314 10.933C19.5314 11.7192 20.2078 12.352 21.2062 12.352C21.7181 12.352 22.0629 12.212 22.2757 12.0142C22.4689 11.8346 22.6049 11.5594 22.6231 11.1551ZM18.5288 11.011L16.2466 4.52475H13.8592L13.9024 11.0576L13.8851 11.0578C13.8854 11.0588 13.8856 11.0599 13.8859 11.061H13.9024C13.9024 11.0896 13.9018 11.1181 13.9007 11.1464C13.9018 11.1604 13.9024 11.1746 13.9024 11.1889C13.9024 11.5352 14.1165 11.9112 14.5731 12.2236C15.0248 12.5327 15.6604 12.7358 16.3449 12.7358C17.6264 12.7358 18.476 11.8062 18.5288 11.011ZM13.3662 12.4574C13.5454 12.6842 13.7659 12.883 14.0084 13.0489C14.6393 13.4806 15.4749 13.7358 16.3449 13.7358C17.4933 13.7358 18.4829 13.1759 19.0427 12.3905C19.4173 12.8481 19.9657 13.1604 20.5783 13.2878V21.1792H17.1781L16.1996 14.6963L16.1354 14.271H15.7052H10.7159H10.2776L10.2202 14.7055L9.36517 21.1792H6.22658V13.4566C6.74967 13.3899 7.2173 13.1812 7.57713 12.8459C7.68417 12.7461 7.77995 12.6367 7.86371 12.519C7.99471 12.6639 8.14297 12.7958 8.30373 12.9127C8.90735 13.3517 9.71656 13.6078 10.588 13.6078C11.4594 13.6078 12.2686 13.3517 12.8722 12.9127C13.0554 12.7794 13.2224 12.6268 13.3662 12.4574ZM12.9024 11.061L12.9024 11.0626C12.9018 11.4279 12.6989 11.8022 12.284 12.104C11.869 12.4058 11.271 12.6078 10.588 12.6078C9.90496 12.6078 9.30693 12.4058 8.8919 12.104C8.50639 11.8236 8.30388 11.4806 8.27665 11.1403L10.6823 4.52475H12.8592L12.9024 11.061ZM7.30358 10.8901L7.77348 11.061H7.27348C7.27348 11.104 7.27483 11.1466 7.27749 11.1889H7.27348C7.27348 11.5852 7.12751 11.898 6.8954 12.1143C6.66067 12.333 6.30799 12.4799 5.85451 12.4799C5.04971 12.4799 4.48174 11.9007 4.43823 11.1537L7.17746 4.52475H9.61825L7.30358 10.8901ZM11.1542 15.271L10.3739 21.1792H16.1668L15.275 15.271H11.1542Z" fill="black"/>
<path d="M6.38097 3.8338L1.93359 -2.81608L-0.0851598 -1.46596L-1.01265 0.778583L6.38097 3.8338ZM6.84307 3.52475V-4.47525H4.41445L2.3957 -3.12513L6.84307 3.52475ZM3.47345 10.87L-3.92018 7.81479L-6.97539 15.2084L0.418231 18.2636L3.47345 10.87ZM3.93555 11.061V19.061L6.99076 3.66733L3.93555 11.061ZM3.43555 11.061V3.06095H-4.56445V11.061H3.43555ZM5.22658 13.4034H13.2266V7.17017L7.18251 5.6462L5.22658 13.4034ZM5.22658 22.1792H-2.77342V30.1792H5.22658V22.1792ZM21.5783 22.1792V30.1792H29.5783V22.1792H21.5783ZM21.5783 13.3325L20.7189 5.37875L13.5783 6.15028V13.3325H21.5783ZM22.9566 12.7466L17.5092 6.8877L17.5092 6.88771L22.9566 12.7466ZM23.6252 11.061H31.6252V3.06095H23.6252V11.061ZM23.1252 11.061L20.07 3.66733L23.1252 19.061V11.061ZM23.5873 10.87L26.6425 18.2636L34.0361 15.2084L30.9809 7.81479L23.5873 10.87ZM20.6798 3.8338L28.0734 0.778583L27.1459 -1.46595L25.1271 -2.81608L20.6798 3.8338ZM20.2177 3.52475L24.665 -3.12513L22.6463 -4.47525H20.2177V3.52475ZM19.8833 4.52475L27.2769 1.46953L25.2336 -3.47525H19.8833V4.52475ZM22.6231 11.1551L30.615 11.5151L30.6949 9.74113L30.0167 8.09993L22.6231 11.1551ZM17.3067 4.52475V-3.47525H6.01111L9.76019 7.18L17.3067 4.52475ZM19.4992 10.7561L11.9527 13.4114L11.9838 13.4997L12.0169 13.5872L19.4992 10.7561ZM22.2757 12.0142L27.723 17.8731L27.723 17.8731L22.2757 12.0142ZM16.2466 4.52475L23.7931 1.8695L21.9125 -3.47525H16.2466V4.52475ZM18.5288 11.011L26.5112 11.5411L26.6199 9.9037L26.0753 8.35575L18.5288 11.011ZM13.8592 4.52475V-3.47525H5.80617L5.85941 4.57764L13.8592 4.52475ZM13.9024 11.0576L13.9554 19.0575L21.9551 19.0045L21.9023 11.0048L13.9024 11.0576ZM13.8851 11.0578L13.8321 3.05794L3.44624 3.12669L6.16377 13.151L13.8851 11.0578ZM13.8859 11.061L6.15112 13.1037L7.72443 19.061H13.8859V11.061ZM13.9024 11.061H21.9024V3.06095H13.9024V11.061ZM13.9007 11.1464L5.90765 10.8119L5.88658 11.3155L5.92888 11.8178L13.9007 11.1464ZM14.5731 12.2236L19.091 5.62145L19.091 5.62144L14.5731 12.2236ZM13.3662 12.4574L19.6433 7.49779L13.5864 -0.168199L7.26582 7.28187L13.3662 12.4574ZM14.0084 13.0489L18.5263 6.44672L18.5263 6.44672L14.0084 13.0489ZM19.0427 12.3905L25.2331 7.323L18.6033 -0.775931L12.5282 7.74703L19.0427 12.3905ZM20.5783 13.2878H28.5783V6.77975L22.2065 5.45522L20.5783 13.2878ZM20.5783 21.1792V29.1792H28.5783V21.1792H20.5783ZM17.1781 21.1792L9.26775 22.3732L10.2951 29.1792H17.1781V21.1792ZM16.1996 14.6963L24.11 13.5023L24.11 13.5023L16.1996 14.6963ZM16.1354 14.271L24.0458 13.0769L23.0185 6.27095H16.1354V14.271ZM10.2776 14.271V6.27095H3.26471L2.34646 13.2234L10.2776 14.271ZM10.2202 14.7055L18.1513 15.753L18.1513 15.753L10.2202 14.7055ZM9.36517 21.1792V29.1792H16.378L17.2963 22.2267L9.36517 21.1792ZM6.22658 21.1792H-1.77342V29.1792H6.22658V21.1792ZM6.22658 13.4566L5.21469 5.52088L-1.77342 6.41194V13.4566H6.22658ZM7.57713 12.8459L13.0309 18.6988L13.0309 18.6987L7.57713 12.8459ZM7.86371 12.519L13.7992 7.15526L7.11906 -0.237099L1.34439 7.88233L7.86371 12.519ZM8.30373 12.9127L3.59836 19.3826L3.59837 19.3826L8.30373 12.9127ZM12.8722 12.9127L17.5775 19.3826L17.5776 19.3826L12.8722 12.9127ZM12.9024 11.0626L20.9024 11.076L20.9024 11.0672L12.9024 11.0626ZM12.9024 11.061L20.9024 11.0656L20.9025 11.0368L20.9023 11.008L12.9024 11.061ZM12.284 12.104L16.9894 18.5738L16.9894 18.5738L12.284 12.104ZM8.27665 11.1403L0.758305 8.40636L0.163242 10.0428L0.302148 11.7785L8.27665 11.1403ZM10.6823 4.52475V-3.47525H5.07889L3.16396 1.79081L10.6823 4.52475ZM12.8592 4.52475L20.859 4.47184L20.8065 -3.47525H12.8592V4.52475ZM7.77348 11.061V19.061L10.5074 3.54261L7.77348 11.061ZM7.30358 10.8901L-0.214768 8.15614L-2.94871 15.6745L4.56964 18.4084L7.30358 10.8901ZM7.27348 11.061V3.06095H-0.726524V11.061H7.27348ZM7.27749 11.1889V19.1889H15.7966L15.2617 10.6866L7.27749 11.1889ZM7.27348 11.1889V3.18888H-0.726524V11.1889H7.27348ZM6.8954 12.1143L1.44162 6.26137L1.4416 6.26139L6.8954 12.1143ZM4.43823 11.1537L-2.95539 8.09847L-3.6547 9.79082L-3.54823 11.6189L4.43823 11.1537ZM7.17746 4.52475V-3.47525H1.82714L-0.216158 1.46953L7.17746 4.52475ZM9.61825 4.52475L17.1366 7.25869L21.0398 -3.47525H9.61825V4.52475ZM10.3739 21.1792L2.44273 20.1317L1.24778 29.1792H10.3739V21.1792ZM11.1542 15.271V7.27095H4.14132L3.22307 14.2234L11.1542 15.271ZM16.1668 21.1792V29.1792H25.465L24.0772 19.9852L16.1668 21.1792ZM15.275 15.271L23.1854 14.0769L22.1581 7.27095H15.275V15.271ZM10.8283 10.4837L11.2904 10.1746L2.3957 -3.12513L1.93359 -2.81608L10.8283 10.4837ZM10.8671 13.9252L13.7746 6.88901L-1.01265 0.778583L-3.92018 7.81479L10.8671 13.9252ZM6.99076 3.66733L6.52866 3.47638L0.418231 18.2636L0.880334 18.4546L6.99076 3.66733ZM3.43555 19.061H3.93555V3.06095H3.43555V19.061ZM7.18251 5.6462C9.81962 6.31113 11.4355 8.67536 11.4355 11.061H-4.56445C-4.56445 15.6743 -1.5156 19.9538 3.27065 21.1606L7.18251 5.6462ZM13.2266 21.6792V13.4034H-2.77342V21.6792H13.2266ZM13.2266 22.1792V21.6792H-2.77342V22.1792H13.2266ZM5.72658 14.1792H5.22658V30.1792H5.72658V14.1792ZM21.0783 14.1792H5.72658V30.1792H21.0783V14.1792ZM21.5783 14.1792H21.0783V30.1792H21.5783V14.1792ZM13.5783 21.6792V22.1792H29.5783V21.6792H13.5783ZM13.5783 13.3325V21.6792H29.5783V13.3325H13.5783ZM17.5092 6.88771C18.6631 5.81492 19.9227 5.46479 20.7189 5.37875L22.4377 21.2862C24.309 21.084 26.5214 20.3557 28.4039 18.6054L17.5092 6.88771ZM15.6252 11.061C15.6252 9.99803 16.0083 8.28326 17.5092 6.8877L28.4039 18.6055C30.8076 16.3706 31.6252 13.4724 31.6252 11.061H15.6252ZM23.1252 19.061H23.6252V3.06095H23.1252V19.061ZM20.5321 3.47638L20.07 3.66733L26.1804 18.4546L26.6425 18.2636L20.5321 3.47638ZM13.2861 6.88901L16.1937 13.9252L30.9809 7.81479L28.0734 0.778583L13.2861 6.88901ZM15.7703 10.1746L16.2324 10.4837L25.1271 -2.81608L24.665 -3.12513L15.7703 10.1746ZM16.6007 11.5247H20.2177V-4.47525H16.6007V11.5247ZM13.3559 11.5247H16.6007V-4.47525H13.3559V11.5247ZM10.3321 11.5247H13.3559V-4.47525H10.3321V11.5247ZM6.84307 11.5247H10.3321V-4.47525H6.84307V11.5247ZM12.4897 7.57997L15.2295 14.2104L30.0167 8.09993L27.2769 1.46953L12.4897 7.57997ZM17.3067 12.5247H19.8833V-3.47525H17.3067V12.5247ZM27.0457 8.10086L24.8532 1.8695L9.76019 7.18L11.9527 13.4114L27.0457 8.10086ZM27.5314 10.933C27.5314 9.88874 27.3393 8.87076 26.9815 7.92503L12.0169 13.5872C11.7007 12.7515 11.5314 11.8527 11.5314 10.933H27.5314ZM21.2062 4.35199C22.3966 4.35199 23.9168 4.74241 25.2544 5.90966C26.624 7.10488 27.5314 8.91469 27.5314 10.933H11.5314C11.5314 17.1263 16.8478 20.352 21.2062 20.352V4.35199ZM16.8283 6.15534C18.4793 4.62033 20.2902 4.35199 21.2062 4.35199V20.352C23.1461 20.352 25.6465 19.8038 27.723 17.8731L16.8283 6.15534ZM14.6312 10.7952C14.691 9.46753 15.2376 7.6343 16.8283 6.15535L27.723 17.8731C29.7001 16.0349 30.5188 13.6514 30.615 11.5151L14.6312 10.7952ZM8.70009 7.18L10.9823 13.6662L26.0753 8.35575L23.7931 1.8695L8.70009 7.18ZM13.8592 12.5247H16.2466V-3.47525H13.8592V12.5247ZM21.9023 11.0048L21.8591 4.47186L5.85941 4.57764L5.9026 11.1105L21.9023 11.0048ZM13.938 19.0576L13.9554 19.0575L13.8495 3.05782L13.8321 3.05794L13.938 19.0576ZM21.6207 9.01819C21.6166 9.00254 21.6118 8.98452 21.6064 8.96455L6.16377 13.151C6.15893 13.1331 6.15469 13.1172 6.15112 13.1037L21.6207 9.01819ZM13.9024 3.06095H13.8859V19.061H13.9024V3.06095ZM21.8937 11.4809C21.8995 11.3412 21.9024 11.2012 21.9024 11.061H5.90244C5.90244 10.978 5.90418 10.895 5.90765 10.8119L21.8937 11.4809ZM21.9024 11.1889C21.9024 10.9504 21.8924 10.7122 21.8724 10.4749L5.92888 11.8178C5.91126 11.6086 5.90244 11.3987 5.90244 11.1889H21.9024ZM19.091 5.62144C20.017 6.25509 21.9024 8.05733 21.9024 11.1889H5.90244C5.90244 15.013 8.21603 17.5672 10.0552 18.8258L19.091 5.62144ZM16.3449 4.73578C17.1447 4.73578 18.1101 4.95025 19.091 5.62145L10.0552 18.8258C11.9395 20.1152 14.176 20.7358 16.3449 20.7358V4.73578ZM10.5464 10.4809C10.686 8.37823 11.7251 6.94237 12.6295 6.151C13.6616 5.24791 14.9862 4.73578 16.3449 4.73578V20.7358C21.3422 20.7358 26.1475 17.0177 26.5112 11.5411L10.5464 10.4809ZM7.08901 17.4169C7.83016 18.355 8.66956 19.0893 9.4905 19.6511L18.5263 6.44672C18.8623 6.67668 19.2606 7.01345 19.6433 7.49779L7.08901 17.4169ZM9.4905 19.6511C11.5549 21.0638 13.9918 21.7358 16.3449 21.7358V5.73578C16.958 5.73578 17.7236 5.89745 18.5263 6.44672L9.4905 19.6511ZM16.3449 21.7358C20.0931 21.7358 23.5039 19.9145 25.5572 17.0339L12.5282 7.74703C13.4618 6.4373 14.8934 5.73578 16.3449 5.73578V21.7358ZM12.8523 17.4579C14.5186 19.4934 16.7606 20.6652 18.9501 21.1203L22.2065 5.45522C23.1707 5.65567 24.316 6.2027 25.2331 7.323L12.8523 17.4579ZM12.5783 13.2878V21.1792H28.5783V13.2878H12.5783ZM20.5783 13.1792H17.1781V29.1792H20.5783V13.1792ZM25.0885 19.9852L24.11 13.5023L8.2892 15.8903L9.26775 22.3732L25.0885 19.9852ZM24.11 13.5023L24.0458 13.0769L8.225 15.465L8.2892 15.8904L24.11 13.5023ZM16.1354 6.27095H15.7052V22.271H16.1354V6.27095ZM15.7052 6.27095H10.7159V22.271H15.7052V6.27095ZM10.7159 6.27095H10.2776V22.271H10.7159V6.27095ZM2.34646 13.2234L2.28907 13.658L18.1513 15.753L18.2087 15.3185L2.34646 13.2234ZM2.28907 13.658L1.43405 20.1317L17.2963 22.2267L18.1513 15.753L2.28907 13.658ZM9.36517 13.1792H6.22658V29.1792H9.36517V13.1792ZM14.2266 21.1792V13.4566H-1.77342V21.1792H14.2266ZM7.23847 21.3924C9.25317 21.1355 11.325 20.2883 13.0309 18.6988L2.12335 6.99298C3.10958 6.074 4.24618 5.64438 5.21469 5.52088L7.23847 21.3924ZM13.0309 18.6987C13.5319 18.2319 13.985 17.7153 14.383 17.1556L1.34439 7.88233C1.57494 7.55817 1.83645 7.26032 2.12333 6.993L13.0309 18.6987ZM1.92817 17.8827C2.45285 18.4633 3.01898 18.9612 3.59836 19.3826L13.0091 6.4428C13.267 6.63033 13.5366 6.86458 13.7992 7.15526L1.92817 17.8827ZM3.59837 19.3826C5.71134 20.9193 8.21028 21.6078 10.588 21.6078V5.60785C11.2228 5.60785 12.1034 5.78408 13.0091 6.4428L3.59837 19.3826ZM10.588 21.6078C12.9656 21.6078 15.4646 20.9193 17.5775 19.3826L8.16682 6.4428C9.07256 5.78408 9.95308 5.60785 10.588 5.60785V21.6078ZM17.5776 19.3826C18.237 18.903 18.8811 18.3228 19.4665 17.6329L7.26582 7.28187C7.56375 6.9307 7.87389 6.65584 8.16681 6.44281L17.5776 19.3826ZM20.9024 11.0672L20.9024 11.0656L4.90244 11.0563L4.90244 11.058L20.9024 11.0672ZM16.9894 18.5738C18.9214 17.1687 20.8965 14.6065 20.9024 11.076L4.90245 11.0492C4.90713 8.24938 6.47636 6.43573 7.57863 5.63407L16.9894 18.5738ZM10.588 20.6078C12.7793 20.6078 15.0665 19.9723 16.9894 18.5738L7.57864 5.63407C8.67142 4.83932 9.76256 4.60785 10.588 4.60785V20.6078ZM4.18653 18.5738C6.10937 19.9723 8.39657 20.6078 10.588 20.6078V4.60785C11.4133 4.60785 12.5045 4.83932 13.5973 5.63407L4.18653 18.5738ZM0.302148 11.7785C0.558494 14.9817 2.39454 17.2706 4.18653 18.5738L13.5973 5.63407C14.6182 6.37658 16.0493 7.97946 16.2512 10.5021L0.302148 11.7785ZM3.16396 1.79081L0.758305 8.40636L15.795 13.8742L18.2007 7.25869L3.16396 1.79081ZM12.8592 -3.47525H10.6823V12.5247H12.8592V-3.47525ZM20.9023 11.008L20.859 4.47184L4.85939 4.57766L4.90261 11.1139L20.9023 11.008ZM10.5074 3.54261L10.0375 3.37173L4.56964 18.4084L5.03954 18.5793L10.5074 3.54261ZM7.27348 19.061H7.77348V3.06095H7.27348V19.061ZM15.2617 10.6866C15.2696 10.8114 15.2735 10.9362 15.2735 11.061H-0.726524C-0.726524 11.2717 -0.719898 11.4819 -0.706727 11.6912L15.2617 10.6866ZM7.27348 19.1889H7.27749V3.18888H7.27348V19.1889ZM12.3492 17.9671C14.289 16.1596 15.2735 13.6879 15.2735 11.1889H-0.726524C-0.726524 9.4826 -0.0339641 7.63634 1.44162 6.26137L12.3492 17.9671ZM5.85451 20.4799C8.0657 20.4799 10.4496 19.7372 12.3492 17.9671L1.4416 6.26139C2.87174 4.92876 4.55028 4.47992 5.85451 4.47992V20.4799ZM-3.54823 11.6189C-3.2659 16.4661 0.683005 20.4799 5.85451 20.4799V4.47992C7.44201 4.47992 9.10642 5.08249 10.4021 6.32671C11.6728 7.54704 12.3345 9.13923 12.4247 10.6885L-3.54823 11.6189ZM-0.216158 1.46953L-2.95539 8.09847L11.8319 14.2089L14.5711 7.57997L-0.216158 1.46953ZM9.61825 -3.47525H7.17746V12.5247H9.61825V-3.47525ZM14.8219 13.624L17.1366 7.25869L2.0999 1.79081L-0.214768 8.15614L14.8219 13.624ZM18.305 22.2267L19.0853 16.3185L3.22307 14.2234L2.44273 20.1317L18.305 22.2267ZM16.1668 13.1792H10.3739V29.1792H16.1668V13.1792ZM7.36461 16.465L8.25642 22.3732L24.0772 19.9852L23.1854 14.0769L7.36461 16.465ZM11.1542 23.271H15.275V7.27095H11.1542V23.271Z" fill="black" mask="url(#path-2-inside-1_765_1491)"/>
</svg>
