<svg width="45" height="50" viewBox="0 0 45 50" fill="none" xmlns="http://www.w3.org/2000/svg">
<path d="M6.42857 3.125C2.88281 3.125 0 5.92773 0 9.375V40.625C0 44.0723 2.88281 46.875 6.42857 46.875H16.2924V32.6367H10.9888V25H16.2924V21.709C16.2924 13.2031 20.25 9.25781 28.8482 9.25781C30.4754 9.25781 33.2879 9.57031 34.4431 9.88281V16.7969C33.8404 16.7383 32.7857 16.6992 31.4699 16.6992C27.2511 16.6992 25.6239 18.252 25.6239 22.2852V25H34.0212L32.5748 32.6367H25.6138V46.875H38.5714C42.1172 46.875 45 44.0723 45 40.625V9.375C45 5.92773 42.1172 3.125 38.5714 3.125H6.42857Z" fill="#3994DB"/>
</svg>
