<svg width="90" height="78" viewBox="0 0 90 78" fill="none" xmlns="http://www.w3.org/2000/svg">
<path d="M2 14.675C4.71979 35.0526 7.43958 55.4302 10.1594 75.8077C34.1918 75.7391 58.2129 75.659 82.2453 75.5903C84.1195 55.373 85.9936 35.167 87.8792 14.9496C73.3888 14.9496 58.8985 14.9153 44.3968 14.8695C30.2607 14.8238 16.1361 14.7551 2 14.6636V14.675Z" stroke="#262222" stroke-width="3" stroke-miterlimit="10"/>
<path d="M31.3463 13.1875C31.7577 10.2699 32.7062 7.13492 34.9917 5.12119C37.8258 2.62691 42.614 3.47359 46.0537 3.54224C49.4935 3.61089 53.2189 3.33629 55.6987 6.03652C57.6643 8.17611 58.4414 11.2768 58.6471 14.1029C58.7956 16.2997 62.2354 16.3111 62.0754 14.1029C61.6754 8.32485 58.9785 1.75734 52.6704 0.567412C48.7964 -0.153411 44.6138 -0.00467006 40.6827 0.0525382C37.3115 0.109746 34.2946 0.750479 31.9177 3.33629C29.6778 5.77336 28.5008 9.03423 28.0437 12.2722C27.918 13.199 28.2722 14.1029 29.2436 14.3889C30.0435 14.6178 31.2206 14.1029 31.3577 13.1875H31.3463Z" fill="#262222"/>
<path d="M27.8609 13.5195L27.6666 25.1442C27.6552 26.071 28.4666 26.8604 29.3808 26.8604C30.295 26.8604 31.0835 26.071 31.0949 25.1442L31.2892 13.5195C31.3006 12.5927 30.4893 11.8032 29.575 11.8032C28.6608 11.8032 27.8723 12.5927 27.8609 13.5195Z" fill="#262222"/>
<path d="M58.5901 14.103C58.6129 17.7872 58.6244 21.4714 58.6472 25.1556C58.6472 26.0481 59.4357 26.9176 60.3614 26.8719C61.287 26.8261 62.0755 26.1167 62.0755 25.1556C62.0527 21.4714 62.0413 17.7872 62.0184 14.103C62.0184 13.2105 61.2299 12.341 60.3042 12.3867C59.3786 12.4325 58.5901 13.1419 58.5901 14.103Z" fill="#262222"/>
</svg>
