<svg width="90" height="79" viewBox="0 0 90 79" fill="none" xmlns="http://www.w3.org/2000/svg">
<path d="M2 15.4826C4.71979 35.8602 7.43958 56.2378 10.1594 76.6154C34.1918 76.5467 58.2129 76.4666 82.2453 76.398C84.1195 56.1806 85.9936 35.9746 87.8792 15.7572C73.3888 15.7572 58.8985 15.7229 44.3968 15.6771C30.2607 15.6314 16.1361 15.5627 2 15.4712V15.4826Z" fill="#262222" stroke="#262222" stroke-width="3" stroke-miterlimit="10"/>
<path d="M31.3463 13.9952C31.7577 11.0775 32.7062 7.94253 34.9917 5.9288C37.8258 3.43453 42.614 4.28121 46.0537 4.34986C49.4935 4.41851 53.2189 4.14391 55.6987 6.84414C57.6643 8.98372 58.4414 12.0844 58.6471 14.9105C58.7956 17.1073 62.2354 17.1187 62.0754 14.9105C61.6754 9.13247 58.9785 2.56496 52.6704 1.37503C48.7964 0.654206 44.6138 0.802947 40.6827 0.860155C37.3115 0.917364 34.2946 1.5581 31.9177 4.14391C29.6778 6.58098 28.5008 9.84185 28.0437 13.0798C27.918 14.0066 28.2722 14.9105 29.2436 15.1965C30.0435 15.4254 31.2206 14.9105 31.3577 13.9952H31.3463Z" fill="#262222"/>
<path d="M27.8609 14.3271L27.6666 25.9518C27.6552 26.8786 28.4666 27.668 29.3808 27.668C30.295 27.668 31.0835 26.8786 31.0949 25.9518L31.2892 14.3271C31.3006 13.4003 30.4893 12.6108 29.575 12.6108C28.6608 12.6108 27.8723 13.4003 27.8609 14.3271Z" fill="#262222"/>
<path d="M58.5901 14.9106C58.6129 18.5948 58.6244 22.279 58.6472 25.9632C58.6472 26.8557 59.4357 27.7252 60.3614 27.6795C61.287 27.6337 62.0755 26.9243 62.0755 25.9632C62.0527 22.279 62.0413 18.5948 62.0184 14.9106C62.0184 14.0182 61.2299 13.1486 60.3042 13.1944C59.3786 13.2401 58.5901 13.9495 58.5901 14.9106Z" fill="#262222"/>
</svg>
