<svg width="32" height="26" viewBox="0 0 32 26" fill="none" xmlns="http://www.w3.org/2000/svg">
<path d="M1 4.83947C1.91843 11.5596 2.83686 18.2798 3.75529 24.9999C11.8707 24.9773 19.9822 24.9509 28.0975 24.9282C28.7304 18.2609 29.3633 11.5973 30 4.93002C25.1069 4.93002 20.2137 4.9187 15.3167 4.90361C10.5432 4.88852 5.77352 4.86588 1 4.83569V4.83947Z" stroke="#262222" stroke-width="2" stroke-miterlimit="10"/>
<path d="M10.9096 4.34901C11.0485 3.38683 11.3688 2.35296 12.1406 1.68887C13.0976 0.866306 14.7145 1.14553 15.8761 1.16817C17.0376 1.19081 18.2956 1.10025 19.133 1.99073C19.7968 2.69633 20.0592 3.71888 20.1286 4.65087C20.1788 5.37533 21.3403 5.37911 21.2863 4.65087C21.1513 2.74538 20.2405 0.57954 18.1104 0.187122C16.8022 -0.0505923 15.3898 -0.0015401 14.0624 0.0173261C12.924 0.0361924 11.9052 0.247494 11.1026 1.10025C10.3462 1.90395 9.94873 2.97932 9.79437 4.04715C9.75192 4.35278 9.87155 4.65087 10.1996 4.7452C10.4697 4.82067 10.8672 4.65087 10.9135 4.34901H10.9096Z" fill="#262222"/>
<path d="M9.73263 4.45856L9.66703 8.29218C9.66317 8.59781 9.93716 8.85817 10.2459 8.85817C10.5546 8.85817 10.8209 8.59781 10.8247 8.29218L10.8903 4.45856C10.8942 4.15293 10.6202 3.89258 10.3115 3.89258C10.0028 3.89258 9.73649 4.15293 9.73263 4.45856Z" fill="#262222"/>
<path d="M20.1094 4.65079C20.1171 5.86577 20.121 7.08076 20.1287 8.29574C20.1287 8.59005 20.3949 8.87682 20.7075 8.86173C21.0201 8.84663 21.2864 8.61269 21.2864 8.29574C21.2786 7.08076 21.2748 5.86577 21.2671 4.65079C21.2671 4.35647 21.0008 4.06971 20.6882 4.0848C20.3756 4.09989 20.1094 4.33383 20.1094 4.65079Z" fill="#262222"/>
</svg>
