<svg width="155" height="128" viewBox="0 0 155 128" fill="none" xmlns="http://www.w3.org/2000/svg">
<ellipse cx="51.9817" cy="71.1481" rx="51.9817" ry="52.1481" fill="#F4D8DB"/>
<path d="M23.7797 89V87.11L32.0597 85.76V20.24L23.7797 18.98V17H50.2397V18.98L41.9597 20.24V52.64L71.2097 22.76L61.3997 18.98V17H82.1897V18.98L74.8097 22.76L54.3797 43.28L83.1797 85.76L89.2997 87.11V89H62.7497V87.11L70.9397 85.85L47.3597 50.3L41.9597 55.79V85.76L50.2397 87.11V89H23.7797ZM90.045 82.07L109.035 62.72C114.015 57.56 117.795 52.55 120.375 47.69C123.015 42.77 124.335 37.7 124.335 32.48C124.335 27.2 123.195 23.36 120.915 20.96C118.695 18.5 115.665 17.27 111.825 17.27C108.825 17.27 106.215 18.08 103.995 19.7C101.775 21.32 100.665 23.45 100.665 26.09C100.665 29.27 102.255 31.64 105.435 33.2C105.435 35.36 104.775 37.01 103.455 38.15C102.135 39.29 100.575 39.86 98.775 39.86C96.855 39.86 95.205 39.17 93.825 37.79C92.445 36.35 91.755 34.4 91.755 31.94C91.755 28.7 92.745 25.82 94.725 23.3C96.705 20.72 99.345 18.74 102.645 17.36C105.945 15.92 109.485 15.2 113.265 15.2C120.585 15.2 126.015 16.94 129.555 20.42C133.095 23.84 134.865 28.37 134.865 34.01C134.865 37.43 134.145 40.58 132.705 43.46C131.325 46.28 129.645 48.74 127.665 50.84C125.745 52.94 123.105 55.46 119.745 58.4L117.225 60.56L95.715 79.55H129.285L132.975 66.23H135.315V89H90.045V82.07Z" fill="#B54962"/>
</svg>
