<svg width="38" height="31" viewBox="0 0 38 31" fill="none" xmlns="http://www.w3.org/2000/svg">
<path d="M2 5.61387C3.07678 13.4092 4.15356 21.2046 5.23034 29C14.7449 28.9737 24.255 28.9431 33.7695 28.9168C34.5115 21.1827 35.2535 13.453 36 5.71892C30.2632 5.71892 24.5264 5.70579 18.7851 5.68828C13.1886 5.67077 7.59654 5.64451 2 5.6095V5.61387Z" stroke="#262222" stroke-width="3" stroke-miterlimit="10"/>
<path d="M13.6183 5.04485C13.7812 3.92873 14.1567 2.72944 15.0616 1.95909C16.1836 1.00492 18.0793 1.32881 19.4411 1.35507C20.8029 1.38133 22.2778 1.27629 23.2596 2.30925C24.0378 3.12774 24.3454 4.3139 24.4268 5.39501C24.4857 6.23539 25.8475 6.23976 25.7841 5.39501C25.6258 3.18464 24.558 0.672266 22.0606 0.217062C20.5269 -0.058687 18.871 -0.00178652 17.3147 0.0200983C15.98 0.0419831 14.7856 0.287093 13.8445 1.27629C12.9578 2.20858 12.4918 3.45602 12.3108 4.6947C12.261 5.04923 12.4013 5.39501 12.7859 5.50443C13.1026 5.59197 13.5686 5.39501 13.6228 5.04485H13.6183Z" fill="#262222"/>
<path d="M12.2385 5.1718L12.1615 9.6188C12.157 9.97333 12.4782 10.2753 12.8402 10.2753C13.2021 10.2753 13.5143 9.97333 13.5188 9.6188L13.5957 5.1718C13.6003 4.81727 13.279 4.51526 12.9171 4.51526C12.5552 4.51526 12.243 4.81727 12.2385 5.1718Z" fill="#262222"/>
<path d="M24.4043 5.39506C24.4133 6.80444 24.4179 8.21383 24.4269 9.62321C24.4269 9.96461 24.7391 10.2973 25.1056 10.2798C25.472 10.2622 25.7842 9.99087 25.7842 9.62321C25.7752 8.21383 25.7706 6.80444 25.7616 5.39506C25.7616 5.05366 25.4494 4.72101 25.0829 4.73852C24.7165 4.75602 24.4043 5.0274 24.4043 5.39506Z" fill="#262222"/>
</svg>
