<?xml version="1.0" encoding="UTF-8"?><svg id="Layer_1" xmlns="http://www.w3.org/2000/svg" width="10.69cm" height=".93cm" viewBox="0 0 303.05 26.23"><path d="m4.95,9.6h-2.46v-.89h5.98v.89h-2.47v7.2h-1.06v-7.2Z"/><path d="m8.9,16.84l.74-1.06c-.67-.72-1.07-1.79-1.07-2.99,0-2.55,1.62-4.22,3.73-4.22.74,0,1.44.22,2.01.64l.71-.97.64.43-.74,1.03c.67.73,1.04,1.79,1.04,2.97,0,2.82-1.74,4.25-3.67,4.25-.77,0-1.47-.23-2.05-.65l-.75,1.03-.59-.47Zm4.91-6.86c-.41-.35-.91-.56-1.51-.56-1.76,0-2.65,1.63-2.65,3.32,0,.9.24,1.55.6,2.17h.01s3.55-4.93,3.55-4.93Zm-3.05,5.53c.4.37.86.58,1.51.58,1.69,0,2.63-1.55,2.63-3.37,0-.68-.14-1.42-.56-2.1h-.04l-3.54,4.89Z"/><path d="m18.98,8.71h1.04v5.41c0,2.15-1.06,2.81-2.45,2.81-.38,0-.85-.08-1.12-.19l.16-.85c.22.08.53.16.88.16.94,0,1.49-.42,1.49-2v-5.33Z"/><path d="m24.31,8.71h4.35v.88h-3.31v2.69h3.06v.86h-3.06v3.66h-1.04v-8.08Z"/><path d="m30.15,8.82c.53-.11,1.28-.17,2-.17,1.12,0,1.83.2,2.34.66.41.36.64.91.64,1.54,0,1.07-.67,1.78-1.52,2.06v.04c.62.22,1,.79,1.19,1.63.26,1.13.46,1.91.62,2.22h-1.08c-.13-.23-.31-.92-.54-1.93-.24-1.12-.67-1.54-1.62-1.57h-.98v3.5h-1.04v-7.98Zm1.04,3.68h1.07c1.12,0,1.82-.61,1.82-1.54,0-1.04-.76-1.5-1.86-1.51-.5,0-.86.05-1.03.1v2.95Z"/><path d="m37.98,14.25l-.84,2.54h-1.08l2.75-8.08h1.26l2.76,8.08h-1.12l-.86-2.54h-2.87Zm2.65-.82l-.79-2.33c-.18-.53-.3-1.01-.42-1.47h-.02c-.12.48-.25.97-.41,1.46l-.79,2.34h2.43Z"/><path d="m46.41,15.52c.47.29,1.15.53,1.87.53,1.07,0,1.69-.56,1.69-1.38,0-.76-.43-1.19-1.52-1.61-1.32-.47-2.13-1.15-2.13-2.29,0-1.26,1.04-2.2,2.61-2.2.83,0,1.43.19,1.79.4l-.29.85c-.26-.14-.8-.38-1.54-.38-1.1,0-1.52.66-1.52,1.21,0,.75.49,1.13,1.61,1.56,1.37.53,2.06,1.19,2.06,2.38,0,1.25-.92,2.33-2.83,2.33-.78,0-1.63-.23-2.06-.52l.26-.88Z"/><path d="m53.52,8.71v8.08h-1.04v-8.08h1.04Z"/><path d="m55.2,15.52c.47.29,1.15.53,1.87.53,1.07,0,1.69-.56,1.69-1.38,0-.76-.43-1.19-1.52-1.61-1.32-.47-2.13-1.15-2.13-2.29,0-1.26,1.04-2.2,2.61-2.2.83,0,1.43.19,1.79.4l-.29.85c-.26-.14-.8-.38-1.54-.38-1.1,0-1.52.66-1.52,1.21,0,.75.49,1.13,1.61,1.56,1.37.53,2.06,1.19,2.06,2.38,0,1.25-.92,2.33-2.83,2.33-.78,0-1.63-.23-2.06-.52l.26-.88Z"/><path d="m61.11,15.52c.47.29,1.15.53,1.87.53,1.07,0,1.69-.56,1.69-1.38,0-.76-.43-1.19-1.52-1.61-1.32-.47-2.13-1.15-2.13-2.29,0-1.26,1.04-2.2,2.61-2.2.83,0,1.43.19,1.79.4l-.29.85c-.26-.14-.8-.38-1.54-.38-1.1,0-1.52.66-1.52,1.21,0,.75.49,1.13,1.61,1.56,1.37.53,2.06,1.19,2.06,2.38,0,1.25-.92,2.33-2.83,2.33-.78,0-1.63-.23-2.06-.52l.26-.88Z"/><path d="m71.36,13h-3.14v2.91h3.5v.88h-4.55v-8.08h4.37v.88h-3.32v2.55h3.14v.86Z"/><path d="m73.08,8.71h1.04v7.21h3.45v.88h-4.5v-8.08Z"/><path d="m85.47,13h-3.14v2.91h3.5v.88h-4.55v-8.08h4.37v.88h-3.32v2.55h3.14v.86Z"/><path d="m87.19,8.82c.64-.1,1.39-.17,2.22-.17,1.5,0,2.57.35,3.27,1.01.72.66,1.14,1.6,1.14,2.9s-.41,2.4-1.16,3.14c-.76.76-2,1.16-3.57,1.16-.74,0-1.37-.04-1.9-.1v-7.95Zm1.04,7.15c.26.05.65.06,1.06.06,2.23,0,3.44-1.25,3.44-3.43.01-1.91-1.07-3.12-3.27-3.12-.54,0-.95.05-1.22.11v6.38Z"/><path d="m99.37,13h-3.14v2.91h3.5v.88h-4.55v-8.08h4.37v.88h-3.32v2.55h3.14v.86Z"/><path d="m101.08,8.71h1.04v7.21h3.45v.88h-4.5v-8.08Z"/><path d="m106.75,8.82c.46-.1,1.18-.17,1.91-.17,1.04,0,1.71.18,2.22.59.42.31.67.79.67,1.43,0,.78-.52,1.46-1.37,1.78v.02c.77.19,1.67.83,1.67,2.03,0,.7-.28,1.22-.68,1.62-.56.52-1.48.75-2.79.75-.72,0-1.27-.05-1.62-.1v-7.95Zm1.04,3.31h.95c1.1,0,1.75-.58,1.75-1.35,0-.95-.72-1.32-1.78-1.32-.48,0-.75.04-.92.07v2.6Zm0,3.87c.2.04.5.05.88.05,1.08,0,2.08-.4,2.08-1.57,0-1.1-.95-1.56-2.09-1.56h-.86v3.08Z"/><path d="m120.16,12.67c0,2.78-1.69,4.26-3.75,4.26s-3.63-1.66-3.63-4.1c0-2.57,1.6-4.25,3.75-4.25s3.63,1.69,3.63,4.09Zm-6.27.13c0,1.73.94,3.27,2.58,3.27s2.59-1.52,2.59-3.36c0-1.61-.84-3.29-2.58-3.29s-2.59,1.59-2.59,3.37Z"/><path d="m152.05,8.71h1.04v3.9h.04c.22-.31.43-.6.64-.86l2.47-3.03h1.29l-2.93,3.43,3.15,4.65h-1.24l-2.66-3.97-.77.89v3.08h-1.04v-8.08Z"/><path d="m159.98,14.25l-.84,2.54h-1.08l2.75-8.08h1.26l2.76,8.08h-1.12l-.86-2.54h-2.87Zm2.65-.82l-.79-2.33c-.18-.53-.3-1.01-.42-1.47h-.02c-.12.48-.25.97-.41,1.46l-.79,2.34h2.43Z"/><path d="m166.02,16.79v-8.08h1.14l2.59,4.09c.6.95,1.07,1.8,1.45,2.63h.02c-.1-1.09-.12-2.08-.12-3.33v-3.38h.98v8.08h-1.06l-2.57-4.1c-.56-.9-1.1-1.82-1.51-2.7h-.04c.06,1.03.08,2,.08,3.35v3.45h-.98Z"/><path d="m176.45,8.71h1.04v3.9h.04c.22-.31.43-.6.64-.86l2.47-3.03h1.29l-2.93,3.43,3.15,4.65h-1.24l-2.66-3.97-.77.89v3.08h-1.04v-8.08Z"/><path d="m184,8.71v4.79c0,1.81.8,2.58,1.88,2.58,1.2,0,1.97-.79,1.97-2.58v-4.79h1.06v4.71c0,2.48-1.31,3.5-3.06,3.5-1.66,0-2.9-.95-2.9-3.45v-4.76h1.06Z"/><path d="m190.72,16.79v-8.08h1.14l2.59,4.09c.6.95,1.07,1.8,1.45,2.63h.02c-.1-1.09-.12-2.08-.12-3.33v-3.38h.98v8.08h-1.06l-2.57-4.1c-.56-.9-1.1-1.82-1.51-2.7h-.04c.06,1.03.08,2,.08,3.35v3.45h-.98Z"/><path d="m201.16,8.71h1.04v3.9h.04c.22-.31.43-.6.64-.86l2.47-3.03h1.29l-2.93,3.43,3.15,4.65h-1.24l-2.66-3.97-.77.89v3.08h-1.04v-8.08Z"/><path d="m207.31,16.84l.74-1.06c-.67-.72-1.07-1.79-1.07-2.99,0-2.55,1.62-4.22,3.73-4.22.74,0,1.44.22,2.01.64l.71-.97.64.43-.74,1.03c.67.73,1.04,1.79,1.04,2.97,0,2.82-1.74,4.25-3.67,4.25-.77,0-1.47-.23-2.05-.65l-.75,1.03-.59-.47Zm4.91-6.86c-.41-.35-.91-.56-1.51-.56-1.76,0-2.65,1.63-2.65,3.32,0,.9.24,1.55.6,2.17h.01s3.55-4.93,3.55-4.93Zm-3.05,5.53c.4.37.86.58,1.51.58,1.69,0,2.63-1.55,2.63-3.37,0-.68-.14-1.42-.56-2.1h-.04l-3.54,4.89Z"/><path d="m215.73,8.82c.46-.1,1.18-.17,1.91-.17,1.04,0,1.71.18,2.22.59.42.31.67.79.67,1.43,0,.78-.52,1.46-1.37,1.78v.02c.77.19,1.67.83,1.67,2.03,0,.7-.28,1.22-.68,1.62-.56.52-1.48.75-2.79.75-.72,0-1.27-.05-1.62-.1v-7.95Zm1.04,3.31h.95c1.1,0,1.75-.58,1.75-1.35,0-.95-.72-1.32-1.77-1.32-.48,0-.76.04-.92.07v2.6Zm0,3.87c.2.04.5.05.88.05,1.08,0,2.08-.4,2.08-1.57,0-1.1-.95-1.56-2.09-1.56h-.86v3.08Z"/><path d="m226.42,13h-3.14v2.91h3.5v.88h-4.55v-8.08h4.37v.88h-3.32v2.55h3.14v.86Z"/><path d="m227.99,15.52c.47.29,1.15.53,1.87.53,1.07,0,1.69-.56,1.69-1.38,0-.76-.43-1.19-1.52-1.61-1.32-.47-2.13-1.15-2.13-2.29,0-1.26,1.04-2.2,2.61-2.2.83,0,1.43.19,1.79.4l-.29.85c-.26-.14-.8-.38-1.54-.38-1.1,0-1.52.66-1.52,1.21,0,.75.49,1.13,1.61,1.56,1.37.53,2.06,1.19,2.06,2.38,0,1.25-.92,2.33-2.83,2.33-.78,0-1.63-.23-2.06-.52l.26-.88Z"/><path d="m237.64,8.71v8.08h-1.04v-8.08h1.04Z"/><path d="m242.01,8.82c.46-.1,1.18-.17,1.91-.17,1.04,0,1.71.18,2.22.59.42.31.67.79.67,1.43,0,.78-.52,1.46-1.37,1.78v.02c.77.19,1.67.83,1.67,2.03,0,.7-.28,1.22-.68,1.62-.56.52-1.48.75-2.79.75-.72,0-1.27-.05-1.62-.1v-7.95Zm1.04,3.31h.95c1.1,0,1.75-.58,1.75-1.35,0-.95-.72-1.32-1.77-1.32-.48,0-.76.04-.92.07v2.6Zm0,3.87c.2.04.5.05.88.05,1.08,0,2.08-.4,2.08-1.57,0-1.1-.95-1.56-2.09-1.56h-.86v3.08Z"/><path d="m249.56,8.71v4.79c0,1.81.8,2.58,1.88,2.58,1.2,0,1.97-.79,1.97-2.58v-4.79h1.06v4.71c0,2.48-1.31,3.5-3.06,3.5-1.66,0-2.9-.95-2.9-3.45v-4.76h1.06Z"/><path d="m257.81,9.6h-2.46v-.89h5.98v.89h-2.47v7.2h-1.06v-7.2Z"/><path d="m263.29,8.71v8.08h-1.04v-8.08h1.04Z"/><path d="m265.11,8.71h1.04v3.9h.04c.22-.31.43-.6.64-.86l2.47-3.03h1.29l-2.93,3.43,3.15,4.65h-1.24l-2.66-3.97-.77.89v3.08h-1.04v-8.08Z"/><circle cx="134.78" cy="13.03" r="4.28"/><circle cx="288.41" cy="13.03" r="4.28"/></svg>