<svg width="72" height="78" viewBox="0 0 72 78" fill="none" xmlns="http://www.w3.org/2000/svg">
<g clip-path="url(#clip0_214_5821)">
<path d="M11.4131 8.61475C0.14272 18.5499 -0.230764 38.8683 10.8639 49.2396C19.8934 57.6753 34.3934 57.5558 43.3515 48.0448C53.0511 37.7512 52.782 20.1391 43.0934 10.1083C34.3604 1.06927 20.3932 0.704843 11.4131 8.61475Z" stroke="#262222" stroke-width="4" stroke-miterlimit="10"/>
<path d="M44.7412 49.5384C56.2478 62.616 64.783 72.0374 66.1616 73.4354C66.1616 73.4354 67.1008 74.3853 69.4571 75.2276C69.6273 75.2874 69.8855 75.3591 70.0063 75.2276C70.1326 75.0902 70.0557 74.7915 70.0063 74.6302C69.501 72.9335 68.9078 72.2405 68.9078 72.2405C68.0071 71.1831 58.9281 61.2598 46.3889 47.7461L44.7412 49.5384Z" fill="#262222" stroke="#262222" stroke-width="4" stroke-miterlimit="10"/>
</g>
<defs>
<clipPath id="clip0_214_5821">
<rect width="72" height="77.3964" fill="white"/>
</clipPath>
</defs>
</svg>
